<?xml version="1.0" encoding="UTF-8"?>
<svg version="1.1" xmlns="http://www.w3.org/2000/svg" width="200" height="200">
<path d="M0 0 C66 0 132 0 200 0 C200 66 200 132 200 200 C134 200 68 200 0 200 C0 134 0 68 0 0 Z " fill="#FDFDFD" transform="translate(0,0)"/>
<path d="M0 0 C6.6 0 13.2 0 20 0 C20.09221123 6.5111377 20.17173664 13.01997776 20.21972656 19.53125 C20.23974747 21.74259145 20.26697259 23.95388058 20.30175781 26.16503906 C20.35069627 29.35755378 20.37306467 32.54936396 20.390625 35.7421875 C20.41127014 36.71864227 20.43191528 37.69509705 20.45318604 38.70114136 C20.45651774 49.0695283 17.12458737 56.60491257 10.03125 64.08203125 C3.76374745 70 3.76374745 70 0 70 C0 46.9 0 23.8 0 0 Z " fill="#E9384E" transform="translate(112,14)"/>
<path d="M0 0 C2.31 0 4.62 0 7 0 C9.21484375 2.40625 9.21484375 2.40625 10.9375 5.5 C11.52402344 6.5209375 12.11054688 7.541875 12.71484375 8.59375 C13.13894531 9.3878125 13.56304687 10.181875 14 11 C14.98058352 9.54261898 15.95942132 8.08406325 16.9375 6.625 C17.75541016 5.40683594 17.75541016 5.40683594 18.58984375 4.1640625 C20.01093879 2.07280816 20.01093879 2.07280816 21 0 C23.64 0 26.28 0 29 0 C29 9.57 29 19.14 29 29 C26.69 29 24.38 29 22 29 C21.67 23.72 21.34 18.44 21 13 C18.03 17.455 18.03 17.455 15 22 C12.0444623 19.24829249 9.88436685 16.58029701 8 13 C8 12.34 8 11.68 8 11 C7.34 11 6.68 11 6 11 C6 16.61 6 22.22 6 28 C4.02 28 2.04 28 0 28 C0 18.76 0 9.52 0 0 Z " fill="#2D2D2F" transform="translate(8,106)"/>
<path d="M0 0 C7.92 0 15.84 0 24 0 C22.23019756 4.42450609 20.16968886 7.94032686 17.5 11.8125 C13.20769423 18.11543718 9.13682505 24.52546177 5.22460938 31.0715332 C4.20205083 32.74741628 3.10760262 34.37906616 2 36 C1.34 36 0.68 36 0 36 C0 24.12 0 12.24 0 0 Z " fill="#E83950" transform="translate(68,14)"/>
<path d="M0 0 C1.65 0 3.3 0 5 0 C5 9.57 5 19.14 5 29 C3.35 29 1.7 29 0 29 C0 28.34 0 27.68 0 27 C-0.680625 27.515625 -1.36125 28.03125 -2.0625 28.5625 C-5.92635729 30.45332378 -7.90081728 30.19248952 -12 29 C-15.22365281 25.69151422 -16.90192657 23.29947292 -17.25 18.6875 C-16.92108564 13.83601324 -15.3827353 11.3827353 -12 8 C-9.94140625 7.734375 -9.94140625 7.734375 -7.5625 7.75 C-6.38880859 7.74226563 -6.38880859 7.74226563 -5.19140625 7.734375 C-3 8 -3 8 0 10 C0 6.7 0 3.4 0 0 Z " fill="#252527" transform="translate(145,105)"/>
<path d="M0 0 C0.66 0 1.32 0 2 0 C2 12.21 2 24.42 2 37 C-5.88630491 35.87338501 -5.88630491 35.87338501 -9.25 33.125 C-10.21679688 32.35542969 -10.21679688 32.35542969 -11.203125 31.5703125 C-11.79609375 31.05210938 -12.3890625 30.53390625 -13 30 C-13.59296875 29.52304688 -14.1859375 29.04609375 -14.796875 28.5546875 C-16 27 -16 27 -15.78198242 25.24169922 C-14.00550268 20.14908699 -10.50445646 15.73220513 -7.5625 11.25 C-6.86833984 10.17105469 -6.17417969 9.09210937 -5.45898438 7.98046875 C-4.4602832 6.45099609 -4.4602832 6.45099609 -3.44140625 4.890625 C-2.82982666 3.95250977 -2.21824707 3.01439453 -1.58813477 2.04785156 C-0.80200806 1.03416504 -0.80200806 1.03416504 0 0 Z " fill="#E3455A" transform="translate(92,48)"/>
<path d="M0 0 C0.95648438 -0.03738281 1.91296875 -0.07476562 2.8984375 -0.11328125 C5.625 0.3125 5.625 0.3125 7.9609375 1.78515625 C10.4061581 5.49890679 10.06213397 8.72243139 9.875 13.0625 C9.85695312 13.85527344 9.83890625 14.64804688 9.8203125 15.46484375 C9.77333082 17.41458348 9.70159044 19.36369878 9.625 21.3125 C7.29166667 21.3125 4.95833333 21.3125 2.625 21.3125 C2.295 21.6425 1.965 21.9725 1.625 22.3125 C-2.19511276 22.672888 -4.53184085 22.85298663 -7.8125 20.75 C-9.8998128 17.49379203 -9.6665423 15.10254984 -9.375 11.3125 C-4.14079213 8.04112008 -1.20894389 8.20606236 4.625 9.3125 C3.965 8.3225 3.305 7.3325 2.625 6.3125 C0.41774927 5.94887182 0.41774927 5.94887182 -2 6.125 C-2.81726563 6.15207031 -3.63453125 6.17914063 -4.4765625 6.20703125 C-5.41628906 6.25923828 -5.41628906 6.25923828 -6.375 6.3125 C-6.705 4.6625 -7.035 3.0125 -7.375 1.3125 C-4.81683084 0.03341542 -2.85652006 0.07275319 0 0 Z " fill="#1B1B1D" transform="translate(181.375,112.6875)"/>
<path d="M0 0 C0.85207031 -0.03738281 1.70414063 -0.07476562 2.58203125 -0.11328125 C6.25620652 0.48714619 7.7416074 1.49667703 10.1875 4.3125 C10.78805636 7.25548778 10.66102964 10.07478081 10.5 13.0625 C10.47744141 13.85527344 10.45488281 14.64804688 10.43164062 15.46484375 C10.37290471 17.4148762 10.28322654 19.36393312 10.1875 21.3125 C7.39557795 21.36630578 4.6046859 21.40607669 1.8125 21.4375 C1.0184375 21.45425781 0.224375 21.47101563 -0.59375 21.48828125 C-2.66742015 21.50585473 -4.74133241 21.41585168 -6.8125 21.3125 C-8.8125 19.3125 -8.8125 19.3125 -9.078125 17.4375 C-9.07296875 16.73625 -9.0678125 16.035 -9.0625 15.3125 C-9.06765625 14.61125 -9.0728125 13.91 -9.078125 13.1875 C-8.8125 11.3125 -8.8125 11.3125 -6.8125 9.3125 C-4.4296875 8.8984375 -4.4296875 8.8984375 -1.6875 8.6875 C-0.77742188 8.61273438 0.13265625 8.53796875 1.0703125 8.4609375 C2.11832031 8.38746094 2.11832031 8.38746094 3.1875 8.3125 C3.1875 7.6525 3.1875 6.9925 3.1875 6.3125 C-0.1125 5.9825 -3.4125 5.6525 -6.8125 5.3125 C-6.8125 3.9925 -6.8125 2.6725 -6.8125 1.3125 C-4.39739385 0.10494692 -2.69511951 0.07677252 0 0 Z " fill="#262628" transform="translate(50.8125,112.6875)"/>
<path d="M0 0 C1.98 0 3.96 0 6 0 C6.33 2.97 6.66 5.94 7 9 C7.99 8.34 8.98 7.68 10 7 C13.06311026 7.19144439 15.20555048 7.38774981 17.66918945 9.28637695 C19.33650187 11.43329786 19.35025185 12.53816313 19.29296875 15.23046875 C19.28330078 16.03291016 19.27363281 16.83535156 19.26367188 17.66210938 C19.23853516 18.49548828 19.21339844 19.32886719 19.1875 20.1875 C19.16719727 21.4549707 19.16719727 21.4549707 19.14648438 22.74804688 C19.11115799 24.83230384 19.05735139 26.91623277 19 29 C17.02 29 15.04 29 13 29 C12.67 24.05 12.34 19.1 12 14 C10.35 14 8.7 14 7 14 C5.58365167 16.83269666 5.6536995 19.47466438 5.4375 22.625 C5.35371094 23.81351563 5.26992187 25.00203125 5.18359375 26.2265625 C5.12300781 27.14179688 5.06242187 28.05703125 5 29 C3.35 29 1.7 29 0 29 C0 19.43 0 9.86 0 0 Z " fill="#1E1E20" transform="translate(67,105)"/>
<path d="M0 0 C2.1796875 1.47265625 2.1796875 1.47265625 4 4 C4.48888009 7.09811797 4.37701143 10.12356468 4.25 13.25 C4.23195313 14.09046875 4.21390625 14.9309375 4.1953125 15.796875 C4.14830798 17.86507395 4.07656724 19.93268441 4 22 C1.69 22 -0.62 22 -3 22 C-3.33 16.72 -3.66 11.44 -4 6 C-5.65 5.67 -7.3 5.34 -9 5 C-9.33 10.28 -9.66 15.56 -10 21 C-11.98 21 -13.96 21 -16 21 C-16 14.07 -16 7.14 -16 0 C-13.33333333 0 -10.66666667 0 -8 0 C-5.02898609 -1.48550695 -3.16565278 -0.82306972 0 0 Z " fill="#373739" transform="translate(120,113)"/>
<path d="M0 0 C1.65 0 3.3 0 5 0 C5 9.57 5 19.14 5 29 C3.35 29 1.7 29 0 29 C0 28.34 0 27.68 0 27 C-2.64 26.67 -5.28 26.34 -8 26 C-8 25.67 -8 25.34 -8 25 C-6.02 25 -4.04 25 -2 25 C-1.7763663 23.58566794 -1.57173524 22.16832382 -1.375 20.75 C-1.25898438 19.96109375 -1.14296875 19.1721875 -1.0234375 18.359375 C-0.99658602 15.65632561 -1.7957612 14.36931535 -3 12 C-2.67 11.01 -2.34 10.02 -2 9 C-1.34 9.33 -0.68 9.66 0 10 C0 6.7 0 3.4 0 0 Z " fill="#181819" transform="translate(145,105)"/>
<path d="M0 0 C1.98 0 3.96 0 6 0 C6.33 0.66 6.66 1.32 7 2 C7.66 1.34 8.32 0.68 9 0 C10.32 0 11.64 0 13 0 C13 1.98 13 3.96 13 6 C12.195625 6.28875 11.39125 6.5775 10.5625 6.875 C7.8673532 7.73262568 7.8673532 7.73262568 7 10 C6.7724985 11.87056791 6.59037189 13.74685958 6.4375 15.625 C6.31181641 17.12933594 6.31181641 17.12933594 6.18359375 18.6640625 C6.12300781 19.43492187 6.06242188 20.20578125 6 21 C4.02 21 2.04 21 0 21 C0 14.07 0 7.14 0 0 Z " fill="#232325" transform="translate(156,113)"/>
<path d="M0 0 C-0.33 0.99 -0.66 1.98 -1 3 C0.32 3.33 1.64 3.66 3 4 C3 5.32 3 6.64 3 8 C2.34 8 1.68 8 1 8 C1.20625 8.61875 1.4125 9.2375 1.625 9.875 C1.74875 10.57625 1.8725 11.2775 2 12 C0 14 0 14 -3.375 14.375 C-7 14 -7 14 -9.4375 12.4375 C-11.5248128 9.18129203 -11.2915423 6.79004984 -11 3 C-7.14243493 0.84694043 -4.44870215 -0.39253254 0 0 Z " fill="#262628" transform="translate(183,121)"/>
<path d="M0 0 C0 0.33 0 0.66 0 1 C-1.11375 1.309375 -2.2275 1.61875 -3.375 1.9375 C-6.7945155 2.82326483 -6.7945155 2.82326483 -9 4 C-9.33 9.61 -9.66 15.22 -10 21 C-11.98 21 -13.96 21 -16 21 C-16 14.07 -16 7.14 -16 0 C-13.33333333 0 -10.66666667 0 -8 0 C-5.13822943 -1.43088528 -3.06624227 -0.59991697 0 0 Z " fill="#1D1D1F" transform="translate(120,113)"/>
<path d="M0 0 C6.6 0 13.2 0 20 0 C20 15.51 20 31.02 20 47 C19.67 47 19.34 47 19 47 C19 31.82 19 16.64 19 1 C13.06 1 7.12 1 1 1 C1 22.78 1 44.56 1 67 C2.32 67.33 3.64 67.66 5 68 C2.525 68.99 2.525 68.99 0 70 C0 46.9 0 23.8 0 0 Z " fill="#DC5A67" transform="translate(112,14)"/>
<path d="M0 0 C1.98 0 3.96 0 6 0 C6 6.93 6 13.86 6 21 C4.02 21 2.04 21 0 21 C0 14.07 0 7.14 0 0 Z " fill="#202022" transform="translate(92,113)"/>
<path d="M0 0 C0.99 0 1.98 0 3 0 C3.33 4.29 3.66 8.58 4 13 C5.65 13.33 7.3 13.66 9 14 C10.28446919 11.43106162 10.32977144 9.23423663 10.5625 6.375 C10.64628906 5.37210938 10.73007812 4.36921875 10.81640625 3.3359375 C10.87699219 2.56507813 10.93757813 1.79421875 11 1 C11.99 1 12.98 1 14 1 C14.05429959 2.74965358 14.09292823 4.49979787 14.125 6.25 C14.14820313 7.22453125 14.17140625 8.1990625 14.1953125 9.203125 C13.99645953 12.05069951 13.55438946 13.63037132 12 16 C8.95016004 17.52491998 6.3576631 17.23562548 3 17 C1.2890625 15.93359375 1.2890625 15.93359375 0 14 C-0.29296875 10.64453125 -0.29296875 10.64453125 -0.1875 6.8125 C-0.16042969 5.54019531 -0.13335937 4.26789063 -0.10546875 2.95703125 C-0.07066406 1.98121094 -0.03585938 1.00539062 0 0 Z " fill="#202022" transform="translate(43,145)"/>
<path d="M0 0 C2.875 0.9375 2.875 0.9375 4.875 3.9375 C4.875 5.2575 4.875 6.5775 4.875 7.9375 C1.905 7.9375 -1.065 7.9375 -4.125 7.9375 C-3.795 8.5975 -3.465 9.2575 -3.125 9.9375 C-0.815 9.9375 1.495 9.9375 3.875 9.9375 C3.545 10.9275 3.215 11.9175 2.875 12.9375 C-3.5032235 13.29853152 -3.5032235 13.29853152 -6.0625 11.8125 C-7.65490283 9.00237736 -7.57819325 7.10985276 -7.125 3.9375 C-4.91876051 0.62814076 -4.01949747 -0.08038995 0 0 Z " fill="#3A3A3B" transform="translate(102.125,149.0625)"/>
<path d="M0 0 C3.125 0.25 3.125 0.25 5.0625 1.3125 C6.77287795 4.43142449 5.93013863 6.90557801 5.125 10.25 C2.33636993 11.64431504 0.20421132 11.50660094 -2.875 11.25 C-4.875 8.25 -4.875 8.25 -4.5625 4.625 C-3.68565574 0.3204918 -3.68565574 0.3204918 0 0 Z " fill="#F2F2F2" transform="translate(138.875,117.75)"/>
<path d="M0 0 C7.92 0 15.84 0 24 0 C23.67 0.66 23.34 1.32 23 2 C16.07 2 9.14 2 2 2 C2 11.57 2 21.14 2 31 C2.66 31.33 3.32 31.66 4 32 C3.34 33.32 2.68 34.64 2 36 C1.34 36 0.68 36 0 36 C0 24.12 0 12.24 0 0 Z " fill="#D45D6F" transform="translate(68,14)"/>
<path d="M0 0 C2.31 0 4.62 0 7 0 C7 0.99 7 1.98 7 3 C5.35 2.67 3.7 2.34 2 2 C2 10.25 2 18.5 2 27 C2.99 27 3.98 27 5 27 C5 21.72 5 16.44 5 11 C5.33 11 5.66 11 6 11 C6 16.61 6 22.22 6 28 C4.02 28 2.04 28 0 28 C0 18.76 0 9.52 0 0 Z " fill="#222224" transform="translate(8,106)"/>
<path d="M0 0 C1.875 0.125 1.875 0.125 4 1 C5.25 4.0625 5.25 4.0625 6 7 C8.10232344 4.1315587 8.10232344 4.1315587 9 1 C9.99 1 10.98 1 12 1 C11.57448104 2.91936213 11.13408062 4.83542874 10.6875 6.75 C10.44386719 7.81734375 10.20023438 8.8846875 9.94921875 9.984375 C9.01396525 12.95563304 8.14955333 14.76446454 6 17 C3.3125 17.25 3.3125 17.25 1 17 C1.33 16.01 1.66 15.02 2 14 C2.99 14 3.98 14 5 14 C4.6390625 13.15695313 4.278125 12.31390625 3.90625 11.4453125 C3.21015625 9.80175781 3.21015625 9.80175781 2.5 8.125 C2.0359375 7.03445312 1.571875 5.94390625 1.09375 4.8203125 C0 2 0 2 0 0 Z " fill="#424243" transform="translate(146,149)"/>
<path d="M0 0 C1.32 0.33 2.64 0.66 4 1 C4.86625 0.814375 5.7325 0.62875 6.625 0.4375 C7.40875 0.293125 8.1925 0.14875 9 0 C11 2 11 2 11.1953125 4.6015625 C11.17210938 5.59929687 11.14890625 6.59703125 11.125 7.625 C11.10695313 8.62789062 11.08890625 9.63078125 11.0703125 10.6640625 C11.03550781 11.82035156 11.03550781 11.82035156 11 13 C10.34 13 9.68 13 9 13 C8.67 10.03 8.34 7.06 8 4 C6.68 4 5.36 4 4 4 C3.67 6.97 3.34 9.94 3 13 C2.01 13 1.02 13 0 13 C0 8.71 0 4.42 0 0 Z " fill="#2B2B2C" transform="translate(60,149)"/>
<path d="M0 0 C2.625 -0.1875 2.625 -0.1875 5 0 C5.33 0.99 5.66 1.98 6 3 C4.35 3 2.7 3 1 3 C2.39195915 5.7839183 4.15575779 5.97898997 7 7 C7.042721 8.66611905 7.04063832 10.33382885 7 12 C6 13 6 13 2.4375 13.0625 C1.303125 13.041875 0.16875 13.02125 -1 13 C-1.33 12.01 -1.66 11.02 -2 10 C0.97 10.495 0.97 10.495 4 11 C4 10.01 4 9.02 4 8 C2.35 7.67 0.7 7.34 -1 7 C-1.625 5.1875 -1.625 5.1875 -2 3 C-1.34 2.01 -0.68 1.02 0 0 Z " fill="#373738" transform="translate(121,149)"/>
<path d="M0 0 C0.99 0 1.98 0 3 0 C3 0.99 3 1.98 3 3 C4.32 3 5.64 3 7 3 C7 3.99 7 4.98 7 6 C5.68 6 4.36 6 3 6 C3.25561323 8.3431213 3.59270772 10.67843403 4 13 C4.66 13.33 5.32 13.66 6 14 C6 14.66 6 15.32 6 16 C4.33388095 16.042721 2.66617115 16.04063832 1 16 C-0.78989392 14.21010608 -0.42127056 11.55229071 -0.625 9.125 C-0.72039062 8.05507812 -0.81578125 6.98515625 -0.9140625 5.8828125 C-1 3 -1 3 0 0 Z " fill="#4A4A4C" transform="translate(138,146)"/>
<path d="M0 0 C0.99 0 1.98 0 3 0 C3.99 2.64 4.98 5.28 6 8 C6.99 5.69 7.98 3.38 9 1 C9.66 1 10.32 1 11 1 C10.45660208 5.56454251 9.20536179 8.9728176 7 13 C6.01 13 5.02 13 4 13 C3.32694982 11.39850114 2.66177773 9.79368971 2 8.1875 C1.62875 7.29417969 1.2575 6.40085938 0.875 5.48046875 C0 3 0 3 0 0 Z " fill="#424243" transform="translate(81,149)"/>
<path d="M0 0 C0.66 0 1.32 0 2 0 C2 0.99 2 1.98 2 3 C6.455 3.99 6.455 3.99 11 5 C10.01 6.485 10.01 6.485 9 8 C6.8359375 8.29296875 6.8359375 8.29296875 4.375 8.1875 C3.55773438 8.16042969 2.74046875 8.13335937 1.8984375 8.10546875 C1.27195313 8.07066406 0.64546875 8.03585938 0 8 C-1.0546875 6.140625 -1.0546875 6.140625 -2 4 C-1.125 1.75 -1.125 1.75 0 0 Z " fill="#1E1E20" transform="translate(44,126)"/>
<path d="M0 0 C2.31 0 4.62 0 7 0 C6.67 1.65 6.34 3.3 6 5 C3.625 5.625 3.625 5.625 1 6 C0.34 5.34 -0.32 4.68 -1 4 C-0.625 1.875 -0.625 1.875 0 0 Z " fill="#E5E5E5" transform="translate(48,125)"/>
<path d="M0 0 C0.99 0 1.98 0 3 0 C3.02694851 1.95825873 3.04637218 3.91662226 3.0625 5.875 C3.07410156 6.96554688 3.08570313 8.05609375 3.09765625 9.1796875 C3 12 3 12 2 14 C1.34 14 0.68 14 0 14 C0 9.38 0 4.76 0 0 Z " fill="#3F3F40" transform="translate(43,145)"/>
<path d="M0 0 C0.99 0 1.98 0 3 0 C3 4.29 3 8.58 3 13 C2.01 13 1.02 13 0 13 C0 8.71 0 4.42 0 0 Z " fill="#3C3C3E" transform="translate(75,149)"/>
<path d="M0 0 C0.99 0 1.98 0 3 0 C3 4.29 3 8.58 3 13 C2.01 13 1.02 13 0 13 C0 8.71 0 4.42 0 0 Z " fill="#3B3B3D" transform="translate(131,149)"/>
<path d="M0 0 C0.66 0 1.32 0 2 0 C2 0.99 2 1.98 2 3 C1.360625 3.4125 0.72125 3.825 0.0625 4.25 C-2.38836869 5.96399307 -2.38836869 5.96399307 -2.75 9.6875 C-2.8325 10.780625 -2.915 11.87375 -3 13 C-3.66 13 -4.32 13 -5 13 C-5 9.04 -5 5.08 -5 1 C-3.68 1 -2.36 1 -1 1 C-0.67 0.67 -0.34 0.34 0 0 Z " fill="#1D1D1E" transform="translate(115,149)"/>
<path d="M0 0 C2.31 0 4.62 0 7 0 C7 1.32 7 2.64 7 4 C4.29120665 5.35439668 1.99066732 5.06501451 -1 5 C-0.67 3.35 -0.34 1.7 0 0 Z " fill="#EDEDED" transform="translate(179,125)"/>
<path d="M0 0 C1.890625 0.18359375 1.890625 0.18359375 4 1 C5.046875 3.28515625 5.046875 3.28515625 5.75 6.0625 C5.99234375 6.98160156 6.2346875 7.90070313 6.484375 8.84765625 C6.65453125 9.55792969 6.8246875 10.26820313 7 11 C6.01 11 5.02 11 4 11 C3.32880451 9.5437455 2.66318193 8.08492133 2 6.625 C1.62875 5.81289062 1.2575 5.00078125 0.875 4.1640625 C0 2 0 2 0 0 Z " fill="#303031" transform="translate(146,149)"/>
<path d="M0 0 C1.22589844 0.01353516 1.22589844 0.01353516 2.4765625 0.02734375 C3.41628906 0.04474609 3.41628906 0.04474609 4.375 0.0625 C4.375 0.3925 4.375 0.7225 4.375 1.0625 C2.395 1.3925 0.415 1.7225 -1.625 2.0625 C-0.305 2.7225 1.015 3.3825 2.375 4.0625 C-2.08 4.5575 -2.08 4.5575 -6.625 5.0625 C-6.625 3.7425 -6.625 2.4225 -6.625 1.0625 C-4.21954362 -0.14022819 -2.67503047 -0.03821472 0 0 Z " fill="#131315" transform="translate(50.625,112.9375)"/>
<path d="M0 0 C1.98 0 3.96 0 6 0 C6 1.65 6 3.3 6 5 C4.02 5 2.04 5 0 5 C0 3.35 0 1.7 0 0 Z " fill="#19191B" transform="translate(92,105)"/>
<path d="M0 0 C2.97 0.495 2.97 0.495 6 1 C6.33 2.98 6.66 4.96 7 7 C4.69 7 2.38 7 0 7 C0 6.67 0 6.34 0 6 C1.65 6 3.3 6 5 6 C3.36526484 2.87525373 3.36526484 2.87525373 0.875 2.3125 C0.25625 2.209375 -0.3625 2.10625 -1 2 C-0.67 1.34 -0.34 0.68 0 0 Z " fill="#222223" transform="translate(99,149)"/>
<path d="M0 0 C0.66 0 1.32 0 2 0 C1.45660208 4.56454251 0.20536179 7.9728176 -2 12 C-2.66 11.67 -3.32 11.34 -4 11 C-2.68 7.37 -1.36 3.74 0 0 Z " fill="#1E1E20" transform="translate(90,150)"/>
<path d="M0 0 C1.32 0 2.64 0 4 0 C4 1.98 4 3.96 4 6 C2.35 6 0.7 6 -1 6 C-1.042721 4.33388095 -1.04063832 2.66617115 -1 1 C-0.67 0.67 -0.34 0.34 0 0 Z " fill="#1A1A1B" transform="translate(165,113)"/>
<path d="M0 0 C0.66 0 1.32 0 2 0 C1.67 1.65 1.34 3.3 1 5 C-1.31 5 -3.62 5 -6 5 C-6.33 4.01 -6.66 3.02 -7 2 C-4.69 2.33 -2.38 2.66 0 3 C0 2.01 0 1.02 0 0 Z " fill="#1A1A1B" transform="translate(126,157)"/>
<path d="M0 0 C0.99 0.33 1.98 0.66 3 1 C2.67 1.99 2.34 2.98 2 4 C3.65 4 5.3 4 7 4 C7 4.33 7 4.66 7 5 C4.36 5.33 1.72 5.66 -1 6 C-1.33 4.35 -1.66 2.7 -2 1 C-1.34 0.67 -0.68 0.34 0 0 Z " fill="#2E2E30" transform="translate(176,113)"/>
<path d="M0 0 C2.01822917 0.26041667 4.03645833 0.52083333 6.0546875 0.78125 C8.00498344 1.0372485 8.00498344 1.0372485 10 1 C9.67 1.99 9.34 2.98 9 4 C6.69 4 4.38 4 2 4 C1.34 2.68 0.68 1.36 0 0 Z " fill="#1B1B1C" transform="translate(96,158)"/>
<path d="M0 0 C0.99 0 1.98 0 3 0 C2.34 2.97 1.68 5.94 1 9 C0.34 9 -0.32 9 -1 9 C-0.67 6.03 -0.34 3.06 0 0 Z " fill="#323233" transform="translate(155,150)"/>
<path d="M0 0 C2.97 0 5.94 0 9 0 C6 3 6 3 3.3125 3.1875 C2.1678125 3.0946875 2.1678125 3.0946875 1 3 C0.67 2.01 0.34 1.02 0 0 Z " fill="#E9E9E9" transform="translate(98,157)"/>
<path d="M0 0 C0 0.33 0 0.66 0 1 C-3.87684087 2.19287411 -6.91621923 3 -11 3 C-10.67 2.01 -10.34 1.02 -10 0 C-9.34 0 -8.68 0 -8 0 C-5.13822943 -1.43088528 -3.06624227 -0.59991697 0 0 Z " fill="#333335" transform="translate(120,113)"/>
<path d="M0 0 C0.33 0 0.66 0 1 0 C1 2.31 1 4.62 1 7 C2.98 7.495 2.98 7.495 5 8 C5 8.66 5 9.32 5 10 C3.35 10 1.7 10 0 10 C0 6.7 0 3.4 0 0 Z " fill="#131313" transform="translate(139,152)"/>
<path d="M0 0 C1.32 0.66 2.64 1.32 4 2 C4 2.66 4 3.32 4 4 C2.02 4 0.04 4 -2 4 C-1.34 2.68 -0.68 1.36 0 0 Z " fill="#E3E3E4" transform="translate(100,151)"/>
<path d="M0 0 C1.65 0 3.3 0 5 0 C5.33 0.99 5.66 1.98 6 3 C4 5 4 5 0.375 5.125 C-0.73875 5.08375 -1.8525 5.0425 -3 5 C-3 4.67 -3 4.34 -3 4 C-1.02 4 0.96 4 3 4 C3 3.34 3 2.68 3 2 C2.01 1.34 1.02 0.68 0 0 Z " fill="#6B6B6C" transform="translate(179,130)"/>
<path d="M0 0 C0.66 0 1.32 0 2 0 C2.66 1.32 3.32 2.64 4 4 C3.01 4.99 2.02 5.98 1 7 C0.67 4.69 0.34 2.38 0 0 Z " fill="#303032" transform="translate(84,155)"/>
<path d="M0 0 C2.4375 0.375 2.4375 0.375 5 1 C5.33 1.66 5.66 2.32 6 3 C3.69 3 1.38 3 -1 3 C-0.67 2.01 -0.34 1.02 0 0 Z " fill="#272728" transform="translate(65,149)"/>
</svg>
